<?xml version="1.0" standalone="no"?>
<!DOCTYPE svg PUBLIC "-//W3C//DTD SVG 20010904//EN"
 "http://www.w3.org/TR/2001/REC-SVG-20010904/DTD/svg10.dtd">
<svg version="1.0" xmlns="http://www.w3.org/2000/svg"
 width="567.000000pt" height="567.000000pt" viewBox="0 0 567.000000 567.000000"
 preserveAspectRatio="xMidYMid meet">
<metadata>
Created by potrace 1.14, written by Peter Selinger 2001-2017
</metadata>
<g transform="translate(0.000000,567.000000) scale(0.100000,-0.100000)"
fill="#000000" stroke="none">
<path d="M1680 4425 c-523 -74 -1000 -415 -1334 -955 -155 -249 -265 -541
-317 -835 -31 -181 -32 -456 0 -629 41 -226 135 -458 263 -649 33 -49 62 -86
66 -83 3 4 11 -3 17 -14 10 -19 14 -16 55 42 156 223 346 389 575 503 237 117
411 151 740 142 219 -6 312 -17 765 -87 676 -104 869 -124 1210 -125 343 0
523 24 820 110 381 111 821 349 1067 577 l62 58 -195 0 c-219 0 -335 10 -509
45 -232 47 -399 103 -620 210 -341 166 -659 406 -1154 875 -317 300 -385 362
-506 463 -258 216 -448 315 -676 352 -111 18 -200 18 -329 0z"/>
</g>
</svg>
